<?xml version="1.0" encoding="UTF-8"?>
<svg width="65px" height="85px" viewBox="0 0 65 85" version="1.1" xmlns="http://www.w3.org/2000/svg" xmlns:xlink="http://www.w3.org/1999/xlink">
    <!-- Generator: Sketch 41.2 (35397) - http://www.bohemiancoding.com/sketch -->
    <title>Shape</title>
    <desc>Created with Sketch.</desc>
    <defs></defs>
    <g id="Page-1" stroke="none" stroke-width="1" fill="none" fill-rule="evenodd">
        <g id="Desktop-HD" transform="translate(-570.000000, -679.000000)" fill="#505050">
            <path d="M602.25,764 C599.719,764 591.162,755.93 584.642,747.395 C577.962,738.651 570,725.282 570,711.25 C570,693.467 584.468,679 602.25,679 C620.032,679 634.5,693.467 634.5,711.25 C634.5,737.183 605.832,764 602.25,764 Z M602.25,682 C586.121,682 573,695.122 573,711.25 C573,735.028 597.713,758.886 602.188,760.921 C605.975,758.76 631.5,734.817 631.5,711.25 C631.5,695.122 618.379,682 602.25,682 Z M602.25,724.708 C594.829,724.708 588.792,718.67 588.792,711.25 C588.792,703.83 594.829,697.792 602.25,697.792 C609.671,697.792 615.708,703.83 615.708,711.25 C615.708,718.67 609.671,724.708 602.25,724.708 Z M602.25,700.792 C596.483,700.792 591.792,705.484 591.792,711.25 C591.792,717.016 596.483,721.708 602.25,721.708 C608.017,721.708 612.708,717.016 612.708,711.25 C612.708,705.484 608.017,700.792 602.25,700.792 Z" id="Shape"></path>
        </g>
    </g>
</svg>