<?xml version="1.0" encoding="UTF-8"?>
<svg width="88px" height="74px" viewBox="0 0 88 74" version="1.1" xmlns="http://www.w3.org/2000/svg" xmlns:xlink="http://www.w3.org/1999/xlink">
    <!-- Generator: Sketch 41.2 (35397) - http://www.bohemiancoding.com/sketch -->
    <title>Shape</title>
    <desc>Created with Sketch.</desc>
    <defs></defs>
    <g id="Page-1" stroke="none" stroke-width="1" fill="none" fill-rule="evenodd">
        <g id="Desktop-HD" transform="translate(-632.000000, -734.000000)" fill="#505050">
            <path d="M707.661895,734 L644.202105,734 C637.473263,734 632,739.482571 632,746.222857 L632,795.123143 C632,801.863429 637.473263,807.346 644.202105,807.346 L707.661895,807.346 C714.390737,807.346 719.864,801.863429 719.864,795.123143 L719.864,746.222857 C719.868421,739.482571 714.390737,734 707.661895,734 Z M644.202105,738.889143 L707.661895,738.889143 C711.247368,738.889143 714.227158,741.488714 714.850526,744.903143 L675.932,767.834286 L637.013474,744.903143 C637.636842,741.488714 640.616632,738.889143 644.202105,738.889143 Z M707.661895,802.456857 L644.202105,802.456857 C640.165684,802.456857 636.880842,799.166429 636.880842,795.123143 L636.880842,750.496429 L675.932,773.511714 L714.983158,750.500857 L714.983158,795.123143 C714.983158,799.166429 711.698316,802.456857 707.661895,802.456857 Z" id="Shape"></path>
        </g>
    </g>
</svg>