<?xml version="1.0" encoding="UTF-8"?>
<svg width="70px" height="70px" viewBox="0 0 70 70" version="1.1" xmlns="http://www.w3.org/2000/svg" xmlns:xlink="http://www.w3.org/1999/xlink">
    <!-- Generator: Sketch 41.2 (35397) - http://www.bohemiancoding.com/sketch -->
    <title>Shape</title>
    <desc>Created with Sketch.</desc>
    <defs></defs>
    <g id="Page-1" stroke="none" stroke-width="1" fill="none" fill-rule="evenodd">
        <g id="Desktop-HD" transform="translate(-700.000000, -806.000000)" fill="#505050">
            <path d="M754.100596,875.55 C751.900596,875.55 749.600596,874.85 747.700596,873.45 L743.400596,870.35 C728.600596,859.75 715.800596,846.95 705.200596,832.25 L702.100596,827.95 C698.900596,823.55 699.400596,817.55 703.300596,813.65 L710.500596,806.45 C711.100596,805.85 712.000596,805.85 712.600596,806.45 L722.700596,816.55 C723.700596,817.55 724.300596,818.95 724.300596,820.45 C724.300596,821.95 723.700596,823.35 722.700596,824.35 L717.800596,829.25 C725.800596,840.15 735.400596,849.75 746.300596,857.75 L751.100596,852.95 C752.100596,851.95 753.500596,851.35 755.000596,851.35 C756.500596,851.35 757.900596,851.95 758.900596,852.95 L769.000596,863.05 C769.600596,863.65 769.600596,864.55 769.000596,865.15 L761.800596,872.35 C759.800596,874.45 756.900596,875.55 754.100596,875.55 Z M711.600596,809.65 L705.400596,815.75 C702.600596,818.55 702.200596,822.95 704.500596,826.15 L707.600596,830.45 L707.600596,830.45 C717.900596,844.95 730.500596,857.45 745.000596,867.85 L749.300596,870.95 C752.500596,873.25 756.900596,872.85 759.700596,870.05 L765.800596,863.95 L756.800596,854.95 C755.800596,853.95 754.100596,853.95 753.200596,854.95 L747.600596,860.75 C747.100596,861.25 746.300596,861.35 745.700596,860.95 C733.700596,852.35 723.300596,841.95 714.700596,829.95 C714.300596,829.35 714.300596,828.55 714.900596,828.05 L720.700596,822.25 C721.200596,821.75 721.400596,821.15 721.400596,820.45 C721.400596,819.75 721.100596,819.15 720.700596,818.65 L711.600596,809.65 Z" id="Shape"></path>
        </g>
    </g>
</svg>