<?xml version="1.0" encoding="UTF-8"?>
<svg width="33px" height="33px" viewBox="0 0 33 33" version="1.1" xmlns="http://www.w3.org/2000/svg" xmlns:xlink="http://www.w3.org/1999/xlink">
    <!-- Generator: Sketch 41.2 (35397) - http://www.bohemiancoding.com/sketch -->
    <title>Shape</title>
    <desc>Created with Sketch.</desc>
    <defs></defs>
    <g id="Page-1" stroke="none" stroke-width="1" fill="none" fill-rule="evenodd">
        <g id="Desktop-HD" transform="translate(-979.000000, -3264.000000)" fill="#FFFFFF">
            <path d="M995.502146,3264 C986.390046,3264.00264 979.003301,3271.38707 979,3280.50083 C979.003301,3289.61491 986.390046,3297 995.502146,3297.00231 C1004.6159,3296.99967 1012,3289.61491 1012,3280.50083 C1012.00033,3271.38707 1004.6159,3264.00264 995.502146,3264 Z M981.645811,3280.50083 C981.651753,3277.54897 982.582772,3274.82029 984.1556,3272.57495 C984.168476,3273.88168 984.652804,3275.5344 986.246431,3277.44695 C988.098234,3279.66819 990.041489,3280.59525 993.098004,3282.44672 C996.152869,3284.29621 995.68835,3285.13017 994.945846,3285.96445 C994.205983,3286.79643 992.448602,3289.84865 995.223501,3291.51689 C997.362203,3292.79787 997.726357,3292.90352 997.354279,3294.01414 C997.327537,3294.09535 997.298154,3294.15346 997.269761,3294.2284 C996.690021,3294.30335 996.103347,3294.35485 995.502806,3294.3565 C987.850623,3294.34395 981.660007,3288.15466 981.645811,3280.50083 Z M1001.67328,3292.88569 C1002.2999,3291.96127 1002.97176,3290.72817 1003.55183,3289.11011 C1004.85129,3285.50225 1005.49673,3280.78079 1002.99916,3281.33643 C1000.79872,3281.82472 998.094803,3282.35362 996.795998,3282.53751 C995.502146,3282.72306 993.927667,3281.42689 992.170287,3280.50215 C990.412906,3279.5774 989.394067,3278.00193 990.780691,3276.98474 C992.170287,3275.96723 994.945185,3279.48463 995.873893,3278.37401 C996.795998,3277.26339 996.152539,3276.24323 997.353289,3273.83909 C998.55569,3271.43197 998.670252,3271.87371 999.574529,3269.85915 C1000.0298,3268.84361 999.941324,3267.97499 999.657066,3267.28696 C1005.27454,3269.0559 1009.3466,3274.29601 1009.35749,3280.5005 C1009.34792,3285.9321 1006.2191,3290.6146 1001.67328,3292.88569 Z" id="Shape"></path>
        </g>
    </g>
</svg>