<?xml version="1.0" encoding="UTF-8"?>
<svg width="65px" height="45px" viewBox="0 0 65 45" version="1.1" xmlns="http://www.w3.org/2000/svg" xmlns:xlink="http://www.w3.org/1999/xlink">
    <!-- Generator: Sketch 41.2 (35397) - http://www.bohemiancoding.com/sketch -->
    <title>Shape</title>
    <desc>Created with Sketch.</desc>
    <defs></defs>
    <g id="Page-1" stroke="none" stroke-width="1" fill="none" fill-rule="evenodd">
        <g id="Desktop-HD" transform="translate(-581.000000, -5298.000000)" fill="#505050">
            <path d="M635,5298 L592,5298 C585.924868,5298 581,5302.92487 581,5309 L581,5332 C581,5338.07513 585.924868,5343 592,5343 L635,5343 C641.075132,5343 646,5338.07513 646,5332 L646,5309 C646,5302.92487 641.075132,5298 635,5298 Z M626.23,5320.94 L606.73,5330.94 C606.575624,5331.01998 606.390782,5331.01403 606.241874,5330.92428 C606.092966,5330.83452 606.001374,5330.67386 606,5330.5 L606,5310.5 C606.001374,5310.32614 606.092966,5310.16548 606.241874,5310.07572 C606.390782,5309.98597 606.575624,5309.98002 606.73,5310.06 L626.23,5320.06 C626.396983,5320.14555 626.50202,5320.31738 626.50202,5320.505 C626.50202,5320.69262 626.396983,5320.86445 626.23,5320.95 L626.23,5320.94 Z" id="Shape"></path>
        </g>
    </g>
</svg>